<mxfile host="app.diagrams.net" agent="Mozilla/5.0 (Windows NT 10.0; Win64; x64) AppleWebKit/537.36 (KHTML, like Gecko) Chrome/141.0.0.0 Safari/537.36" version="28.2.7">
  <diagram name="Страница-1" id="EVVOry4LFyyCns86RIXM">
    <mxGraphModel grid="1" page="1" gridSize="10" guides="1" tooltips="1" connect="1" arrows="1" fold="1" pageScale="1" pageWidth="827" pageHeight="1169" math="0" shadow="0">
      <root>
        <mxCell id="0" />
        <mxCell id="1" parent="0" />
        <mxCell id="opWwulUOpppvouaUZtau-1" value="&lt;u&gt;AccountID&lt;/u&gt;" style="ellipse;whiteSpace=wrap;html=1;fillColor=#b1ddf0;strokeColor=#10739e;" vertex="1" parent="1">
          <mxGeometry x="80" y="10" width="80" height="50" as="geometry" />
        </mxCell>
        <mxCell id="opWwulUOpppvouaUZtau-2" value="Role" style="ellipse;whiteSpace=wrap;html=1;fillColor=#b1ddf0;strokeColor=#10739e;" vertex="1" parent="1">
          <mxGeometry x="80" y="130" width="80" height="50" as="geometry" />
        </mxCell>
        <mxCell id="opWwulUOpppvouaUZtau-4" value="Email" style="ellipse;whiteSpace=wrap;html=1;fillColor=#b1ddf0;strokeColor=#10739e;" vertex="1" parent="1">
          <mxGeometry x="80" y="70" width="80" height="50" as="geometry" />
        </mxCell>
        <mxCell id="opWwulUOpppvouaUZtau-5" value="Created At" style="ellipse;whiteSpace=wrap;html=1;fillColor=#b1ddf0;strokeColor=#10739e;" vertex="1" parent="1">
          <mxGeometry x="80" y="190" width="80" height="50" as="geometry" />
        </mxCell>
        <mxCell id="opWwulUOpppvouaUZtau-6" value="Password" style="ellipse;whiteSpace=wrap;html=1;fillColor=#b1ddf0;strokeColor=#10739e;" vertex="1" parent="1">
          <mxGeometry x="80" y="250" width="80" height="50" as="geometry" />
        </mxCell>
        <mxCell id="opWwulUOpppvouaUZtau-7" value="Account&lt;span style=&quot;color: rgba(0, 0, 0, 0); font-family: monospace; font-size: 0px; text-align: start; text-wrap-mode: nowrap;&quot;&gt;%3CmxGraphModel%3E%3Croot%3E%3CmxCell%20%3D%220%22%2F%3E%3CmxCell%20id%3D%221%22%20parent%3D%220%22%2F%3E%3CmxCell%20id%3D%222%22%20value%3D%22Created%20At%22%20style%3D%22ellipse%3BwhiteSpace%3Dwrap%3Bhtml%3D1%3B%22%20vertex%3D%221%22%20parent%3D%221%22%3E%3CmxGeometry%20x%3D%2230%22%20y%3D%22340%22%20width%3D%2280%22%20height%3D%2250%22%20as%3D%22geometry%22%2F%3E%3C%2FmxCell%3E%3C%2Froot%3E%3C%2FmxGraphModel%3E&lt;/span&gt;" style="rounded=0;whiteSpace=wrap;html=1;fillColor=#b1ddf0;strokeColor=#10739e;" vertex="1" parent="1">
          <mxGeometry x="205" y="117.5" width="120" height="60" as="geometry" />
        </mxCell>
        <mxCell id="opWwulUOpppvouaUZtau-9" value="Game" style="rounded=0;whiteSpace=wrap;html=1;fillColor=#b1ddf0;strokeColor=#10739e;" vertex="1" parent="1">
          <mxGeometry x="820" y="115" width="120" height="60" as="geometry" />
        </mxCell>
        <mxCell id="opWwulUOpppvouaUZtau-10" value="Publisher" style="rounded=0;whiteSpace=wrap;html=1;fillColor=#b1ddf0;strokeColor=#10739e;" vertex="1" parent="1">
          <mxGeometry x="1160" y="115" width="120" height="60" as="geometry" />
        </mxCell>
        <mxCell id="opWwulUOpppvouaUZtau-11" value="&lt;u&gt;PublisherID&lt;/u&gt;" style="ellipse;whiteSpace=wrap;html=1;fillColor=#b1ddf0;strokeColor=#10739e;" vertex="1" parent="1">
          <mxGeometry x="1100" y="20" width="100" height="50" as="geometry" />
        </mxCell>
        <mxCell id="opWwulUOpppvouaUZtau-13" value="Name" style="ellipse;whiteSpace=wrap;html=1;fillColor=#b1ddf0;strokeColor=#10739e;" vertex="1" parent="1">
          <mxGeometry x="1220" y="20" width="80" height="50" as="geometry" />
        </mxCell>
        <mxCell id="opWwulUOpppvouaUZtau-15" value="Website" style="ellipse;whiteSpace=wrap;html=1;fillColor=#b1ddf0;strokeColor=#10739e;" vertex="1" parent="1">
          <mxGeometry x="1320" y="30" width="80" height="50" as="geometry" />
        </mxCell>
        <mxCell id="opWwulUOpppvouaUZtau-16" value="Email" style="ellipse;whiteSpace=wrap;html=1;fillColor=#b1ddf0;strokeColor=#10739e;" vertex="1" parent="1">
          <mxGeometry x="1320" y="100" width="80" height="50" as="geometry" />
        </mxCell>
        <mxCell id="opWwulUOpppvouaUZtau-17" value="Found At" style="ellipse;whiteSpace=wrap;html=1;fillColor=#b1ddf0;strokeColor=#10739e;" vertex="1" parent="1">
          <mxGeometry x="1320" y="160" width="80" height="50" as="geometry" />
        </mxCell>
        <mxCell id="opWwulUOpppvouaUZtau-18" value="Country" style="ellipse;whiteSpace=wrap;html=1;fillColor=#b1ddf0;strokeColor=#10739e;" vertex="1" parent="1">
          <mxGeometry x="1320" y="220" width="80" height="50" as="geometry" />
        </mxCell>
        <mxCell id="opWwulUOpppvouaUZtau-20" value="" style="endArrow=none;html=1;rounded=0;entryX=0.466;entryY=1.029;entryDx=0;entryDy=0;entryPerimeter=0;exitX=0.5;exitY=0;exitDx=0;exitDy=0;fillColor=#b1ddf0;strokeColor=#10739e;" edge="1" parent="1" source="opWwulUOpppvouaUZtau-10" target="opWwulUOpppvouaUZtau-11">
          <mxGeometry width="50" height="50" relative="1" as="geometry">
            <mxPoint x="1100" y="200" as="sourcePoint" />
            <mxPoint x="1150" y="150" as="targetPoint" />
          </mxGeometry>
        </mxCell>
        <mxCell id="opWwulUOpppvouaUZtau-21" value="" style="endArrow=none;html=1;rounded=0;entryX=0.375;entryY=1;entryDx=0;entryDy=0;entryPerimeter=0;exitX=0.689;exitY=-0.021;exitDx=0;exitDy=0;exitPerimeter=0;fillColor=#b1ddf0;strokeColor=#10739e;" edge="1" parent="1" source="opWwulUOpppvouaUZtau-10" target="opWwulUOpppvouaUZtau-13">
          <mxGeometry width="50" height="50" relative="1" as="geometry">
            <mxPoint x="1200" y="110" as="sourcePoint" />
            <mxPoint x="1250" y="100" as="targetPoint" />
          </mxGeometry>
        </mxCell>
        <mxCell id="opWwulUOpppvouaUZtau-22" value="" style="endArrow=none;html=1;rounded=0;entryX=0.244;entryY=0.907;entryDx=0;entryDy=0;entryPerimeter=0;fillColor=#b1ddf0;strokeColor=#10739e;exitX=1;exitY=0;exitDx=0;exitDy=0;" edge="1" parent="1" source="opWwulUOpppvouaUZtau-10" target="opWwulUOpppvouaUZtau-15">
          <mxGeometry width="50" height="50" relative="1" as="geometry">
            <mxPoint x="1270" y="117" as="sourcePoint" />
            <mxPoint x="1330" y="70" as="targetPoint" />
            <Array as="points">
              <mxPoint x="1300" y="100" />
            </Array>
          </mxGeometry>
        </mxCell>
        <mxCell id="opWwulUOpppvouaUZtau-23" value="" style="endArrow=none;html=1;rounded=0;entryX=0;entryY=0.5;entryDx=0;entryDy=0;exitX=1.006;exitY=0.185;exitDx=0;exitDy=0;exitPerimeter=0;fillColor=#b1ddf0;strokeColor=#10739e;" edge="1" parent="1" source="opWwulUOpppvouaUZtau-10" target="opWwulUOpppvouaUZtau-16">
          <mxGeometry width="50" height="50" relative="1" as="geometry">
            <mxPoint x="1190" y="180" as="sourcePoint" />
            <mxPoint x="1310" y="126" as="targetPoint" />
          </mxGeometry>
        </mxCell>
        <mxCell id="opWwulUOpppvouaUZtau-24" value="" style="endArrow=none;html=1;rounded=0;entryX=0;entryY=0.5;entryDx=0;entryDy=0;exitX=1;exitY=0.75;exitDx=0;exitDy=0;fillColor=#b1ddf0;strokeColor=#10739e;" edge="1" parent="1" source="opWwulUOpppvouaUZtau-10" target="opWwulUOpppvouaUZtau-17">
          <mxGeometry width="50" height="50" relative="1" as="geometry">
            <mxPoint x="1261" y="187.5" as="sourcePoint" />
            <mxPoint x="1310" y="182.5" as="targetPoint" />
          </mxGeometry>
        </mxCell>
        <mxCell id="opWwulUOpppvouaUZtau-25" value="" style="endArrow=none;html=1;rounded=0;entryX=0;entryY=0.5;entryDx=0;entryDy=0;exitX=0.909;exitY=1.044;exitDx=0;exitDy=0;exitPerimeter=0;fillColor=#b1ddf0;strokeColor=#10739e;" edge="1" parent="1" source="opWwulUOpppvouaUZtau-10" target="opWwulUOpppvouaUZtau-18">
          <mxGeometry width="50" height="50" relative="1" as="geometry">
            <mxPoint x="1310" y="175" as="sourcePoint" />
            <mxPoint x="1359" y="170" as="targetPoint" />
          </mxGeometry>
        </mxCell>
        <mxCell id="opWwulUOpppvouaUZtau-27" value="&lt;u&gt;GameID&lt;/u&gt;" style="ellipse;whiteSpace=wrap;html=1;fillColor=#b1ddf0;strokeColor=#10739e;" vertex="1" parent="1">
          <mxGeometry x="770.73" y="10" width="80" height="50" as="geometry" />
        </mxCell>
        <mxCell id="opWwulUOpppvouaUZtau-28" value="Name" style="ellipse;whiteSpace=wrap;html=1;fillColor=#b1ddf0;strokeColor=#10739e;" vertex="1" parent="1">
          <mxGeometry x="860.73" y="10" width="80" height="50" as="geometry" />
        </mxCell>
        <mxCell id="opWwulUOpppvouaUZtau-29" value="Price" style="ellipse;whiteSpace=wrap;html=1;fillColor=#b1ddf0;strokeColor=#10739e;" vertex="1" parent="1">
          <mxGeometry x="950.73" y="10" width="80" height="50" as="geometry" />
        </mxCell>
        <mxCell id="opWwulUOpppvouaUZtau-30" value="Genre&lt;span style=&quot;color: rgba(0, 0, 0, 0); font-family: monospace; font-size: 0px; text-align: start; text-wrap-mode: nowrap;&quot;&gt;%3CmxGraphModel%3E%3Croot%3E%3CmxCell%20id%3D%220%22%2F%3E%3CmxCell%20id%3D%221%22%20parent%3D%220%22%2F%3E%3CmxCell%20id%3D%222%22%20value%3D%22Price%22%20style%3D%22ellipse%3BwhiteSpace%3Dwrap%3Bhtml%3D1%3B%22%20vertex%3D%221%22%20parent%3D%221%22%3E%3CmxGeometry%20x%3D%22700%22%20y%3D%2210%22%20width%3D%2280%22%20height%3D%2250%22%20as%3D%22geometry%22%2F%3E%3C%2FmxCell%3E%3C%2Froot%3E%3C%2FmxGraphModel%3E&lt;/span&gt;" style="ellipse;whiteSpace=wrap;html=1;fillColor=#b1ddf0;strokeColor=#10739e;" vertex="1" parent="1">
          <mxGeometry x="940.73" y="240" width="80" height="50" as="geometry" />
        </mxCell>
        <mxCell id="opWwulUOpppvouaUZtau-31" value="Description" style="ellipse;whiteSpace=wrap;html=1;fillColor=#b1ddf0;strokeColor=#10739e;" vertex="1" parent="1">
          <mxGeometry x="847" y="240" width="80" height="50" as="geometry" />
        </mxCell>
        <mxCell id="opWwulUOpppvouaUZtau-32" value="Release Date" style="ellipse;whiteSpace=wrap;html=1;fillColor=#b1ddf0;strokeColor=#10739e;" vertex="1" parent="1">
          <mxGeometry x="995" y="180" width="80" height="50" as="geometry" />
        </mxCell>
        <mxCell id="opWwulUOpppvouaUZtau-33" value="Age Rating" style="ellipse;whiteSpace=wrap;html=1;fillColor=#b1ddf0;strokeColor=#10739e;" vertex="1" parent="1">
          <mxGeometry x="693" y="190" width="80" height="50" as="geometry" />
        </mxCell>
        <mxCell id="opWwulUOpppvouaUZtau-34" value="" style="endArrow=none;html=1;rounded=0;entryX=0.815;entryY=0.955;entryDx=0;entryDy=0;entryPerimeter=0;exitX=0.25;exitY=0;exitDx=0;exitDy=0;fillColor=#b1ddf0;strokeColor=#10739e;" edge="1" parent="1" source="opWwulUOpppvouaUZtau-9" target="opWwulUOpppvouaUZtau-27">
          <mxGeometry width="50" height="50" relative="1" as="geometry">
            <mxPoint x="785.73" y="100" as="sourcePoint" />
            <mxPoint x="835.73" y="50" as="targetPoint" />
          </mxGeometry>
        </mxCell>
        <mxCell id="opWwulUOpppvouaUZtau-35" value="" style="endArrow=none;html=1;rounded=0;entryX=0.5;entryY=1;entryDx=0;entryDy=0;exitX=0.5;exitY=0;exitDx=0;exitDy=0;fillColor=#b1ddf0;strokeColor=#10739e;" edge="1" parent="1" source="opWwulUOpppvouaUZtau-9" target="opWwulUOpppvouaUZtau-28">
          <mxGeometry width="50" height="50" relative="1" as="geometry">
            <mxPoint x="935.73" y="142" as="sourcePoint" />
            <mxPoint x="920.73" y="110" as="targetPoint" />
          </mxGeometry>
        </mxCell>
        <mxCell id="opWwulUOpppvouaUZtau-36" value="" style="endArrow=none;html=1;rounded=0;entryX=0;entryY=1;entryDx=0;entryDy=0;exitX=0.75;exitY=0;exitDx=0;exitDy=0;fillColor=#b1ddf0;strokeColor=#10739e;" edge="1" parent="1" source="opWwulUOpppvouaUZtau-9" target="opWwulUOpppvouaUZtau-29">
          <mxGeometry width="50" height="50" relative="1" as="geometry">
            <mxPoint x="970.73" y="130" as="sourcePoint" />
            <mxPoint x="990.73" y="100" as="targetPoint" />
            <Array as="points" />
          </mxGeometry>
        </mxCell>
        <mxCell id="opWwulUOpppvouaUZtau-37" value="" style="endArrow=none;html=1;rounded=0;entryX=1;entryY=0.75;entryDx=0;entryDy=0;exitX=0;exitY=0;exitDx=0;exitDy=0;fillColor=#b1ddf0;strokeColor=#10739e;" edge="1" parent="1" source="opWwulUOpppvouaUZtau-32" target="opWwulUOpppvouaUZtau-9">
          <mxGeometry width="50" height="50" relative="1" as="geometry">
            <mxPoint x="1012.1874411852332" y="207.4852480000294" as="sourcePoint" />
            <mxPoint x="1041.73" y="170" as="targetPoint" />
          </mxGeometry>
        </mxCell>
        <mxCell id="opWwulUOpppvouaUZtau-38" value="" style="endArrow=none;html=1;rounded=0;entryX=0.75;entryY=1;entryDx=0;entryDy=0;exitX=0.5;exitY=0;exitDx=0;exitDy=0;fillColor=#b1ddf0;strokeColor=#10739e;" edge="1" parent="1" source="opWwulUOpppvouaUZtau-30" target="opWwulUOpppvouaUZtau-9">
          <mxGeometry width="50" height="50" relative="1" as="geometry">
            <mxPoint x="940.73" y="220" as="sourcePoint" />
            <mxPoint x="869.73" y="148" as="targetPoint" />
          </mxGeometry>
        </mxCell>
        <mxCell id="opWwulUOpppvouaUZtau-39" value="" style="endArrow=none;html=1;rounded=0;entryX=0.5;entryY=1;entryDx=0;entryDy=0;exitX=0.5;exitY=0;exitDx=0;exitDy=0;fillColor=#b1ddf0;strokeColor=#10739e;" edge="1" parent="1" source="opWwulUOpppvouaUZtau-31" target="opWwulUOpppvouaUZtau-9">
          <mxGeometry width="50" height="50" relative="1" as="geometry">
            <mxPoint x="990.73" y="240" as="sourcePoint" />
            <mxPoint x="950.73" y="190" as="targetPoint" />
          </mxGeometry>
        </mxCell>
        <mxCell id="opWwulUOpppvouaUZtau-40" value="" style="endArrow=none;html=1;rounded=0;entryX=0;entryY=0.75;entryDx=0;entryDy=0;exitX=1;exitY=0;exitDx=0;exitDy=0;fillColor=#b1ddf0;strokeColor=#10739e;" edge="1" parent="1" source="opWwulUOpppvouaUZtau-33" target="opWwulUOpppvouaUZtau-9">
          <mxGeometry width="50" height="50" relative="1" as="geometry">
            <mxPoint x="769.2725588147418" y="207.48524800004475" as="sourcePoint" />
            <mxPoint x="805.73" y="150" as="targetPoint" />
          </mxGeometry>
        </mxCell>
        <mxCell id="opWwulUOpppvouaUZtau-42" value="" style="endArrow=none;html=1;rounded=0;entryX=1;entryY=0.5;entryDx=0;entryDy=0;exitX=0;exitY=0.5;exitDx=0;exitDy=0;fillColor=#b1ddf0;strokeColor=#10739e;" edge="1" parent="1" source="opWwulUOpppvouaUZtau-10" target="UKkPd1WE1HDjljk0dFrL-10">
          <mxGeometry width="50" height="50" relative="1" as="geometry">
            <mxPoint x="1080" y="230" as="sourcePoint" />
            <mxPoint x="1130" y="180" as="targetPoint" />
          </mxGeometry>
        </mxCell>
        <mxCell id="opWwulUOpppvouaUZtau-43" value="" style="endArrow=none;html=1;rounded=0;entryX=1;entryY=0.5;entryDx=0;entryDy=0;exitX=0;exitY=0.5;exitDx=0;exitDy=0;fillColor=#b1ddf0;strokeColor=#10739e;" edge="1" parent="1" source="UKkPd1WE1HDjljk0dFrL-10" target="opWwulUOpppvouaUZtau-9">
          <mxGeometry width="50" height="50" relative="1" as="geometry">
            <mxPoint x="961" y="133" as="sourcePoint" />
            <mxPoint x="1070.73" y="150" as="targetPoint" />
          </mxGeometry>
        </mxCell>
        <mxCell id="opWwulUOpppvouaUZtau-45" value="" style="endArrow=none;html=1;rounded=0;entryX=1;entryY=0.5;entryDx=0;entryDy=0;exitX=0;exitY=0.5;exitDx=0;exitDy=0;fillColor=#b1ddf0;strokeColor=#10739e;" edge="1" parent="1" source="opWwulUOpppvouaUZtau-9" target="UKkPd1WE1HDjljk0dFrL-9">
          <mxGeometry width="50" height="50" relative="1" as="geometry">
            <mxPoint x="870" y="145" as="sourcePoint" />
            <mxPoint x="860" y="182.5" as="targetPoint" />
          </mxGeometry>
        </mxCell>
        <mxCell id="opWwulUOpppvouaUZtau-46" value="" style="endArrow=none;html=1;rounded=0;exitX=0;exitY=0.5;exitDx=0;exitDy=0;entryX=1.008;entryY=0.617;entryDx=0;entryDy=0;fillColor=#b1ddf0;strokeColor=#10739e;entryPerimeter=0;" edge="1" parent="1" source="UKkPd1WE1HDjljk0dFrL-9" target="UKkPd1WE1HDjljk0dFrL-1">
          <mxGeometry width="50" height="50" relative="1" as="geometry">
            <mxPoint x="870" y="169.5" as="sourcePoint" />
            <mxPoint x="620" y="147.5" as="targetPoint" />
          </mxGeometry>
        </mxCell>
        <mxCell id="opWwulUOpppvouaUZtau-49" value="" style="endArrow=none;html=1;rounded=0;entryX=1;entryY=0.5;entryDx=0;entryDy=0;fillColor=#b1ddf0;strokeColor=#10739e;exitX=0;exitY=0.5;exitDx=0;exitDy=0;" edge="1" parent="1" source="UKkPd1WE1HDjljk0dFrL-1" target="UKkPd1WE1HDjljk0dFrL-8">
          <mxGeometry width="50" height="50" relative="1" as="geometry">
            <mxPoint x="500" y="148" as="sourcePoint" />
            <mxPoint x="740" y="150" as="targetPoint" />
          </mxGeometry>
        </mxCell>
        <mxCell id="opWwulUOpppvouaUZtau-50" value="" style="endArrow=none;html=1;rounded=0;exitX=0;exitY=0.5;exitDx=0;exitDy=0;entryX=1;entryY=0.5;entryDx=0;entryDy=0;fillColor=#b1ddf0;strokeColor=#10739e;" edge="1" parent="1" source="UKkPd1WE1HDjljk0dFrL-8" target="opWwulUOpppvouaUZtau-7">
          <mxGeometry width="50" height="50" relative="1" as="geometry">
            <mxPoint x="620" y="220" as="sourcePoint" />
            <mxPoint x="600" y="220" as="targetPoint" />
          </mxGeometry>
        </mxCell>
        <mxCell id="opWwulUOpppvouaUZtau-51" value="Website" style="ellipse;whiteSpace=wrap;html=1;fillColor=#b1ddf0;strokeColor=#10739e;" vertex="1" parent="1">
          <mxGeometry x="565" y="200" width="80" height="50" as="geometry" />
        </mxCell>
        <mxCell id="opWwulUOpppvouaUZtau-52" value="&lt;u&gt;AccountID&lt;/u&gt;" style="ellipse;whiteSpace=wrap;html=1;fillColor=#b1ddf0;strokeColor=#10739e;" vertex="1" parent="1">
          <mxGeometry x="450" y="20" width="80" height="50" as="geometry" />
        </mxCell>
        <mxCell id="opWwulUOpppvouaUZtau-53" value="Studio Name" style="ellipse;whiteSpace=wrap;html=1;fillColor=#b1ddf0;strokeColor=#10739e;" vertex="1" parent="1">
          <mxGeometry x="630" y="20" width="80" height="50" as="geometry" />
        </mxCell>
        <mxCell id="opWwulUOpppvouaUZtau-54" value="Found At" style="ellipse;whiteSpace=wrap;html=1;fillColor=#b1ddf0;strokeColor=#10739e;" vertex="1" parent="1">
          <mxGeometry x="460" y="200" width="80" height="50" as="geometry" />
        </mxCell>
        <mxCell id="opWwulUOpppvouaUZtau-55" value="&lt;u&gt;DeveloperID&lt;/u&gt;" style="ellipse;whiteSpace=wrap;html=1;fillColor=#b1ddf0;strokeColor=#10739e;" vertex="1" parent="1">
          <mxGeometry x="540" y="20" width="80" height="50" as="geometry" />
        </mxCell>
        <mxCell id="opWwulUOpppvouaUZtau-56" value="" style="endArrow=none;html=1;rounded=0;exitX=0.25;exitY=0;exitDx=0;exitDy=0;entryX=0.5;entryY=1;entryDx=0;entryDy=0;fillColor=#b1ddf0;strokeColor=#10739e;" edge="1" parent="1" source="UKkPd1WE1HDjljk0dFrL-1" target="opWwulUOpppvouaUZtau-52">
          <mxGeometry width="50" height="50" relative="1" as="geometry">
            <mxPoint x="460" y="160" as="sourcePoint" />
            <mxPoint x="430" y="160" as="targetPoint" />
            <Array as="points" />
          </mxGeometry>
        </mxCell>
        <mxCell id="opWwulUOpppvouaUZtau-57" value="" style="endArrow=none;html=1;rounded=0;exitX=0.75;exitY=1;exitDx=0;exitDy=0;entryX=0.5;entryY=0;entryDx=0;entryDy=0;fillColor=#b1ddf0;strokeColor=#10739e;" edge="1" parent="1" source="UKkPd1WE1HDjljk0dFrL-1" target="opWwulUOpppvouaUZtau-51">
          <mxGeometry width="50" height="50" relative="1" as="geometry">
            <mxPoint x="640" y="145" as="sourcePoint" />
            <mxPoint x="590" y="100" as="targetPoint" />
            <Array as="points" />
          </mxGeometry>
        </mxCell>
        <mxCell id="opWwulUOpppvouaUZtau-58" value="" style="endArrow=none;html=1;rounded=0;entryX=0.5;entryY=1;entryDx=0;entryDy=0;fillColor=#b1ddf0;strokeColor=#10739e;exitX=0.925;exitY=0.017;exitDx=0;exitDy=0;exitPerimeter=0;" edge="1" parent="1" source="UKkPd1WE1HDjljk0dFrL-1" target="opWwulUOpppvouaUZtau-53">
          <mxGeometry width="50" height="50" relative="1" as="geometry">
            <mxPoint x="630" y="270" as="sourcePoint" />
            <mxPoint x="720" y="90" as="targetPoint" />
            <Array as="points" />
          </mxGeometry>
        </mxCell>
        <mxCell id="opWwulUOpppvouaUZtau-59" value="" style="endArrow=none;html=1;rounded=0;exitX=0.5;exitY=1;exitDx=0;exitDy=0;fillColor=#b1ddf0;strokeColor=#10739e;entryX=0.5;entryY=0;entryDx=0;entryDy=0;" edge="1" parent="1" source="opWwulUOpppvouaUZtau-55" target="UKkPd1WE1HDjljk0dFrL-1">
          <mxGeometry width="50" height="50" relative="1" as="geometry">
            <mxPoint x="640" y="165" as="sourcePoint" />
            <mxPoint x="560" y="118" as="targetPoint" />
            <Array as="points" />
          </mxGeometry>
        </mxCell>
        <mxCell id="opWwulUOpppvouaUZtau-60" value="" style="endArrow=none;html=1;rounded=0;exitX=0.5;exitY=0;exitDx=0;exitDy=0;fillColor=#b1ddf0;strokeColor=#10739e;entryX=0.25;entryY=1;entryDx=0;entryDy=0;" edge="1" parent="1" source="opWwulUOpppvouaUZtau-54" target="UKkPd1WE1HDjljk0dFrL-1">
          <mxGeometry width="50" height="50" relative="1" as="geometry">
            <mxPoint x="640" y="237.5" as="sourcePoint" />
            <mxPoint x="530" y="170" as="targetPoint" />
            <Array as="points" />
          </mxGeometry>
        </mxCell>
        <mxCell id="opWwulUOpppvouaUZtau-61" value="" style="endArrow=none;html=1;rounded=0;entryX=1;entryY=0.5;entryDx=0;entryDy=0;exitX=0;exitY=0;exitDx=0;exitDy=0;fillColor=#b1ddf0;strokeColor=#10739e;" edge="1" parent="1" source="opWwulUOpppvouaUZtau-7" target="opWwulUOpppvouaUZtau-1">
          <mxGeometry width="50" height="50" relative="1" as="geometry">
            <mxPoint x="270" y="115" as="sourcePoint" />
            <mxPoint x="550" y="160" as="targetPoint" />
          </mxGeometry>
        </mxCell>
        <mxCell id="opWwulUOpppvouaUZtau-62" value="" style="endArrow=none;html=1;rounded=0;entryX=1;entryY=0.5;entryDx=0;entryDy=0;exitX=0;exitY=0.25;exitDx=0;exitDy=0;fillColor=#b1ddf0;strokeColor=#10739e;" edge="1" parent="1" source="opWwulUOpppvouaUZtau-7" target="opWwulUOpppvouaUZtau-4">
          <mxGeometry width="50" height="50" relative="1" as="geometry">
            <mxPoint x="180" y="130" as="sourcePoint" />
            <mxPoint x="170" y="140" as="targetPoint" />
          </mxGeometry>
        </mxCell>
        <mxCell id="opWwulUOpppvouaUZtau-63" value="" style="endArrow=none;html=1;rounded=0;entryX=1;entryY=0.5;entryDx=0;entryDy=0;exitX=0;exitY=0.5;exitDx=0;exitDy=0;fillColor=#b1ddf0;strokeColor=#10739e;" edge="1" parent="1" source="opWwulUOpppvouaUZtau-7" target="opWwulUOpppvouaUZtau-2">
          <mxGeometry width="50" height="50" relative="1" as="geometry">
            <mxPoint x="180" y="145" as="sourcePoint" />
            <mxPoint x="220" y="180" as="targetPoint" />
          </mxGeometry>
        </mxCell>
        <mxCell id="opWwulUOpppvouaUZtau-64" value="" style="endArrow=none;html=1;rounded=0;entryX=0;entryY=0.75;entryDx=0;entryDy=0;exitX=1;exitY=0.5;exitDx=0;exitDy=0;fillColor=#b1ddf0;strokeColor=#10739e;" edge="1" parent="1" source="opWwulUOpppvouaUZtau-5" target="opWwulUOpppvouaUZtau-7">
          <mxGeometry width="50" height="50" relative="1" as="geometry">
            <mxPoint x="261" y="180" as="sourcePoint" />
            <mxPoint x="203.63999999999987" y="174.87999999999988" as="targetPoint" />
          </mxGeometry>
        </mxCell>
        <mxCell id="opWwulUOpppvouaUZtau-65" value="" style="endArrow=none;html=1;rounded=0;entryX=0;entryY=1;entryDx=0;entryDy=0;exitX=1;exitY=0.5;exitDx=0;exitDy=0;fillColor=#b1ddf0;strokeColor=#10739e;" edge="1" parent="1" source="opWwulUOpppvouaUZtau-6" target="opWwulUOpppvouaUZtau-7">
          <mxGeometry width="50" height="50" relative="1" as="geometry">
            <mxPoint x="240" y="329" as="sourcePoint" />
            <mxPoint x="252.96000000000004" y="175.53999999999996" as="targetPoint" />
          </mxGeometry>
        </mxCell>
        <mxCell id="opWwulUOpppvouaUZtau-66" value="Tag" style="rounded=0;whiteSpace=wrap;html=1;fillColor=#b1ddf0;strokeColor=#10739e;" vertex="1" parent="1">
          <mxGeometry x="1290" y="350" width="120" height="60" as="geometry" />
        </mxCell>
        <mxCell id="opWwulUOpppvouaUZtau-67" value="GameTag" style="rounded=0;whiteSpace=wrap;html=1;fillColor=#b1ddf0;strokeColor=#10739e;" vertex="1" parent="1">
          <mxGeometry x="980" y="350" width="120" height="60" as="geometry" />
        </mxCell>
        <mxCell id="opWwulUOpppvouaUZtau-69" value="Review" style="rounded=0;whiteSpace=wrap;html=1;fillColor=#b1ddf0;strokeColor=#10739e;" vertex="1" parent="1">
          <mxGeometry x="1115" y="642.5" width="120" height="60" as="geometry" />
        </mxCell>
        <mxCell id="opWwulUOpppvouaUZtau-70" value="Order" style="rounded=0;whiteSpace=wrap;html=1;fillColor=#b1ddf0;strokeColor=#10739e;" vertex="1" parent="1">
          <mxGeometry x="214" y="465" width="120" height="60" as="geometry" />
        </mxCell>
        <mxCell id="opWwulUOpppvouaUZtau-73" value="" style="endArrow=none;html=1;rounded=0;exitX=1;exitY=0.5;exitDx=0;exitDy=0;fillColor=#b1ddf0;strokeColor=#10739e;" edge="1" parent="1" source="opWwulUOpppvouaUZtau-67" target="NvxxbsTkmJ9zuggZ2Z-y-13">
          <mxGeometry width="50" height="50" relative="1" as="geometry">
            <mxPoint x="1090" y="370" as="sourcePoint" />
            <mxPoint x="1160" y="450" as="targetPoint" />
          </mxGeometry>
        </mxCell>
        <mxCell id="opWwulUOpppvouaUZtau-74" value="" style="endArrow=none;html=1;rounded=0;entryX=0;entryY=0.5;entryDx=0;entryDy=0;exitX=1;exitY=0.5;exitDx=0;exitDy=0;fillColor=#b1ddf0;strokeColor=#10739e;" edge="1" parent="1" source="NvxxbsTkmJ9zuggZ2Z-y-13" target="opWwulUOpppvouaUZtau-66">
          <mxGeometry width="50" height="50" relative="1" as="geometry">
            <mxPoint x="1280" y="432" as="sourcePoint" />
            <mxPoint x="1310" y="430" as="targetPoint" />
          </mxGeometry>
        </mxCell>
        <mxCell id="opWwulUOpppvouaUZtau-75" value="&lt;u&gt;TagID&lt;/u&gt;" style="ellipse;whiteSpace=wrap;html=1;fillColor=#b1ddf0;strokeColor=#10739e;" vertex="1" parent="1">
          <mxGeometry x="1450" y="290" width="80" height="50" as="geometry" />
        </mxCell>
        <mxCell id="opWwulUOpppvouaUZtau-76" value="Description" style="ellipse;whiteSpace=wrap;html=1;fillColor=#b1ddf0;strokeColor=#10739e;" vertex="1" parent="1">
          <mxGeometry x="1450" y="355" width="80" height="50" as="geometry" />
        </mxCell>
        <mxCell id="opWwulUOpppvouaUZtau-77" value="Name" style="ellipse;whiteSpace=wrap;html=1;fillColor=#b1ddf0;strokeColor=#10739e;" vertex="1" parent="1">
          <mxGeometry x="1450" y="420" width="80" height="50" as="geometry" />
        </mxCell>
        <mxCell id="opWwulUOpppvouaUZtau-78" value="" style="endArrow=none;html=1;rounded=0;entryX=0;entryY=1;entryDx=0;entryDy=0;exitX=1;exitY=0.25;exitDx=0;exitDy=0;fillColor=#b1ddf0;strokeColor=#10739e;" edge="1" parent="1" source="opWwulUOpppvouaUZtau-66" target="opWwulUOpppvouaUZtau-75">
          <mxGeometry width="50" height="50" relative="1" as="geometry">
            <mxPoint x="1080" y="390" as="sourcePoint" />
            <mxPoint x="1130" y="340" as="targetPoint" />
          </mxGeometry>
        </mxCell>
        <mxCell id="opWwulUOpppvouaUZtau-79" value="" style="endArrow=none;html=1;rounded=0;entryX=0;entryY=0.5;entryDx=0;entryDy=0;exitX=1;exitY=0.5;exitDx=0;exitDy=0;fillColor=#b1ddf0;strokeColor=#10739e;" edge="1" parent="1" source="opWwulUOpppvouaUZtau-66" target="opWwulUOpppvouaUZtau-76">
          <mxGeometry width="50" height="50" relative="1" as="geometry">
            <mxPoint x="1510" y="467" as="sourcePoint" />
            <mxPoint x="1562" y="410" as="targetPoint" />
          </mxGeometry>
        </mxCell>
        <mxCell id="opWwulUOpppvouaUZtau-80" value="" style="endArrow=none;html=1;rounded=0;entryX=1;entryY=0.75;entryDx=0;entryDy=0;exitX=0;exitY=0.5;exitDx=0;exitDy=0;fillColor=#b1ddf0;strokeColor=#10739e;" edge="1" parent="1" source="opWwulUOpppvouaUZtau-77" target="opWwulUOpppvouaUZtau-66">
          <mxGeometry width="50" height="50" relative="1" as="geometry">
            <mxPoint x="1450" y="440" as="sourcePoint" />
            <mxPoint x="1540" y="460" as="targetPoint" />
          </mxGeometry>
        </mxCell>
        <mxCell id="opWwulUOpppvouaUZtau-81" value="&lt;u&gt;TagID&lt;/u&gt;" style="ellipse;whiteSpace=wrap;html=1;fillColor=#b1ddf0;strokeColor=#10739e;" vertex="1" parent="1">
          <mxGeometry x="1060" y="450" width="80" height="50" as="geometry" />
        </mxCell>
        <mxCell id="opWwulUOpppvouaUZtau-82" value="&lt;u&gt;GameID&lt;/u&gt;" style="ellipse;whiteSpace=wrap;html=1;fillColor=#b1ddf0;strokeColor=#10739e;" vertex="1" parent="1">
          <mxGeometry x="960" y="450" width="80" height="50" as="geometry" />
        </mxCell>
        <mxCell id="opWwulUOpppvouaUZtau-83" value="" style="endArrow=none;html=1;rounded=0;entryX=0.5;entryY=0;entryDx=0;entryDy=0;exitX=0.75;exitY=1;exitDx=0;exitDy=0;fillColor=#b1ddf0;strokeColor=#10739e;" edge="1" parent="1" source="opWwulUOpppvouaUZtau-67" target="opWwulUOpppvouaUZtau-81">
          <mxGeometry width="50" height="50" relative="1" as="geometry">
            <mxPoint x="1130" y="410" as="sourcePoint" />
            <mxPoint x="1160" y="410" as="targetPoint" />
          </mxGeometry>
        </mxCell>
        <mxCell id="opWwulUOpppvouaUZtau-84" value="" style="endArrow=none;html=1;rounded=0;entryX=0.5;entryY=0;entryDx=0;entryDy=0;exitX=0.433;exitY=1;exitDx=0;exitDy=0;exitPerimeter=0;fillColor=#b1ddf0;strokeColor=#10739e;" edge="1" parent="1" source="opWwulUOpppvouaUZtau-67" target="opWwulUOpppvouaUZtau-82">
          <mxGeometry width="50" height="50" relative="1" as="geometry">
            <mxPoint x="1140" y="470" as="sourcePoint" />
            <mxPoint x="1170" y="495" as="targetPoint" />
          </mxGeometry>
        </mxCell>
        <mxCell id="opWwulUOpppvouaUZtau-86" value="" style="endArrow=none;html=1;rounded=0;entryX=1;entryY=0.5;entryDx=0;entryDy=0;exitX=0;exitY=0.5;exitDx=0;exitDy=0;fillColor=#b1ddf0;strokeColor=#10739e;" edge="1" parent="1" source="opWwulUOpppvouaUZtau-67" target="NvxxbsTkmJ9zuggZ2Z-y-12">
          <mxGeometry width="50" height="50" relative="1" as="geometry">
            <mxPoint x="980" y="390" as="sourcePoint" />
            <mxPoint x="1060" y="340" as="targetPoint" />
          </mxGeometry>
        </mxCell>
        <mxCell id="opWwulUOpppvouaUZtau-87" value="" style="endArrow=none;html=1;rounded=0;entryX=0.5;entryY=0;entryDx=0;entryDy=0;exitX=0.136;exitY=0.989;exitDx=0;exitDy=0;exitPerimeter=0;fillColor=#b1ddf0;strokeColor=#10739e;" edge="1" parent="1" source="opWwulUOpppvouaUZtau-9" target="NvxxbsTkmJ9zuggZ2Z-y-12">
          <mxGeometry width="50" height="50" relative="1" as="geometry">
            <mxPoint x="1010" y="390" as="sourcePoint" />
            <mxPoint x="1060" y="340" as="targetPoint" />
          </mxGeometry>
        </mxCell>
        <mxCell id="opWwulUOpppvouaUZtau-89" value="" style="endArrow=none;html=1;rounded=0;entryX=1;entryY=0.5;entryDx=0;entryDy=0;exitX=0;exitY=0.5;exitDx=0;exitDy=0;fillColor=#b1ddf0;strokeColor=#10739e;" edge="1" parent="1" source="UKkPd1WE1HDjljk0dFrL-3" target="UKkPd1WE1HDjljk0dFrL-2">
          <mxGeometry width="50" height="50" relative="1" as="geometry">
            <mxPoint x="970" y="542" as="sourcePoint" />
            <mxPoint x="665" y="555" as="targetPoint" />
          </mxGeometry>
        </mxCell>
        <mxCell id="opWwulUOpppvouaUZtau-90" value="" style="endArrow=none;html=1;rounded=0;entryX=1;entryY=0.5;entryDx=0;entryDy=0;exitX=0;exitY=0.5;exitDx=0;exitDy=0;fillColor=#b1ddf0;strokeColor=#10739e;" edge="1" parent="1" source="opWwulUOpppvouaUZtau-69" target="UKkPd1WE1HDjljk0dFrL-3">
          <mxGeometry width="50" height="50" relative="1" as="geometry">
            <mxPoint x="1165" y="690" as="sourcePoint" />
            <mxPoint x="1075.0000000000005" y="669.9999999999998" as="targetPoint" />
          </mxGeometry>
        </mxCell>
        <mxCell id="opWwulUOpppvouaUZtau-91" value="&lt;u&gt;GameID&lt;/u&gt;" style="ellipse;whiteSpace=wrap;html=1;fillColor=#b1ddf0;strokeColor=#10739e;" vertex="1" parent="1">
          <mxGeometry x="1155" y="730" width="80" height="50" as="geometry" />
        </mxCell>
        <mxCell id="opWwulUOpppvouaUZtau-92" value="&lt;u&gt;ReviewID&lt;/u&gt;" style="ellipse;whiteSpace=wrap;html=1;fillColor=#b1ddf0;strokeColor=#10739e;" vertex="1" parent="1">
          <mxGeometry x="1060" y="730" width="80" height="50" as="geometry" />
        </mxCell>
        <mxCell id="opWwulUOpppvouaUZtau-93" value="Review Date" style="ellipse;whiteSpace=wrap;html=1;fillColor=#b1ddf0;strokeColor=#10739e;" vertex="1" parent="1">
          <mxGeometry x="1220" y="570" width="80" height="50" as="geometry" />
        </mxCell>
        <mxCell id="opWwulUOpppvouaUZtau-94" value="&lt;u&gt;UserID&lt;span style=&quot;color: rgba(0, 0, 0, 0); font-family: monospace; font-size: 0px; text-align: start; text-wrap-mode: nowrap;&quot;&gt;%3CmxGraphModel%3E%3Croot%3E%3CmxCell%20id%3D%220%22%2F%3E%3CmxCell%20id%3D%221%22%20parent%3D%220%22%2F%3E%3CmxCell%20id%3D%222%22%20value%3D%22GameID%22%20style%3D%22ellipse%3BwhiteSpace%3Dwrap%3Bhtml%3D1%3B%22%20vertex%3D%221%22%20parent%3D%221%22%3E%3CmxGeometry%20x%3D%22940%22%20y%3D%22720%22%20width%3D%2280%22%20height%3D%2250%22%20as%3D%22geometry%22%2F%3E%3C%2FmxCell%3E%3C%2Froot%3E%3C%2FmxGraphModel%3E&lt;/span&gt;&lt;/u&gt;" style="ellipse;whiteSpace=wrap;html=1;fillColor=#b1ddf0;strokeColor=#10739e;" vertex="1" parent="1">
          <mxGeometry x="1260" y="730" width="80" height="50" as="geometry" />
        </mxCell>
        <mxCell id="opWwulUOpppvouaUZtau-95" value="Review Text" style="ellipse;whiteSpace=wrap;html=1;fillColor=#b1ddf0;strokeColor=#10739e;" vertex="1" parent="1">
          <mxGeometry x="1270" y="647.5" width="80" height="50" as="geometry" />
        </mxCell>
        <mxCell id="opWwulUOpppvouaUZtau-97" value="" style="endArrow=none;html=1;rounded=0;entryX=1;entryY=0.5;entryDx=0;entryDy=0;exitX=0;exitY=0.5;exitDx=0;exitDy=0;fillColor=#b1ddf0;strokeColor=#10739e;" edge="1" parent="1" source="opWwulUOpppvouaUZtau-95" target="opWwulUOpppvouaUZtau-69">
          <mxGeometry width="50" height="50" relative="1" as="geometry">
            <mxPoint x="1195" y="690" as="sourcePoint" />
            <mxPoint x="1165" y="690" as="targetPoint" />
          </mxGeometry>
        </mxCell>
        <mxCell id="opWwulUOpppvouaUZtau-99" value="" style="endArrow=none;html=1;rounded=0;entryX=1;entryY=1;entryDx=0;entryDy=0;exitX=0;exitY=0;exitDx=0;exitDy=0;fillColor=#b1ddf0;strokeColor=#10739e;" edge="1" parent="1" source="opWwulUOpppvouaUZtau-94" target="opWwulUOpppvouaUZtau-69">
          <mxGeometry width="50" height="50" relative="1" as="geometry">
            <mxPoint x="1355" y="867" as="sourcePoint" />
            <mxPoint x="1305" y="820" as="targetPoint" />
          </mxGeometry>
        </mxCell>
        <mxCell id="opWwulUOpppvouaUZtau-100" value="" style="endArrow=none;html=1;rounded=0;entryX=0.5;entryY=1;entryDx=0;entryDy=0;exitX=0.5;exitY=0;exitDx=0;exitDy=0;fillColor=#b1ddf0;strokeColor=#10739e;" edge="1" parent="1" source="opWwulUOpppvouaUZtau-91" target="opWwulUOpppvouaUZtau-69">
          <mxGeometry width="50" height="50" relative="1" as="geometry">
            <mxPoint x="1412" y="866" as="sourcePoint" />
            <mxPoint x="1345" y="790" as="targetPoint" />
          </mxGeometry>
        </mxCell>
        <mxCell id="opWwulUOpppvouaUZtau-101" value="" style="endArrow=none;html=1;rounded=0;entryX=0.25;entryY=1;entryDx=0;entryDy=0;exitX=0.5;exitY=0;exitDx=0;exitDy=0;fillColor=#b1ddf0;strokeColor=#10739e;" edge="1" parent="1" source="opWwulUOpppvouaUZtau-92" target="opWwulUOpppvouaUZtau-69">
          <mxGeometry width="50" height="50" relative="1" as="geometry">
            <mxPoint x="1275" y="817" as="sourcePoint" />
            <mxPoint x="1265" y="750" as="targetPoint" />
          </mxGeometry>
        </mxCell>
        <mxCell id="opWwulUOpppvouaUZtau-102" value="" style="endArrow=none;html=1;rounded=0;entryX=0.5;entryY=1;entryDx=0;entryDy=0;exitX=0.75;exitY=0;exitDx=0;exitDy=0;fillColor=#b1ddf0;strokeColor=#10739e;" edge="1" parent="1" source="opWwulUOpppvouaUZtau-69" target="opWwulUOpppvouaUZtau-93">
          <mxGeometry width="50" height="50" relative="1" as="geometry">
            <mxPoint x="1415" y="788" as="sourcePoint" />
            <mxPoint x="1455" y="720" as="targetPoint" />
          </mxGeometry>
        </mxCell>
        <mxCell id="opWwulUOpppvouaUZtau-103" value="Rating" style="ellipse;whiteSpace=wrap;html=1;dashed=1;dashPattern=12 12;fillColor=#b1ddf0;strokeColor=#10739e;" vertex="1" parent="1">
          <mxGeometry x="1095" y="570" width="80" height="50" as="geometry" />
        </mxCell>
        <mxCell id="opWwulUOpppvouaUZtau-105" value="" style="endArrow=none;html=1;rounded=0;entryX=0.5;entryY=1;entryDx=0;entryDy=0;exitX=0.5;exitY=0;exitDx=0;exitDy=0;fillColor=#b1ddf0;strokeColor=#10739e;" edge="1" parent="1" source="opWwulUOpppvouaUZtau-69" target="opWwulUOpppvouaUZtau-103">
          <mxGeometry width="50" height="50" relative="1" as="geometry">
            <mxPoint x="1275" y="658" as="sourcePoint" />
            <mxPoint x="1385" y="620" as="targetPoint" />
          </mxGeometry>
        </mxCell>
        <mxCell id="opWwulUOpppvouaUZtau-106" value="&lt;u&gt;GameID&lt;/u&gt;" style="ellipse;whiteSpace=wrap;html=1;fillColor=#b1ddf0;strokeColor=#10739e;" vertex="1" parent="1">
          <mxGeometry x="75" y="760" width="80" height="50" as="geometry" />
        </mxCell>
        <mxCell id="opWwulUOpppvouaUZtau-107" value="&lt;u&gt;OrderID&lt;/u&gt;" style="ellipse;whiteSpace=wrap;html=1;fillColor=#b1ddf0;strokeColor=#10739e;" vertex="1" parent="1">
          <mxGeometry x="75" y="830" width="80" height="50" as="geometry" />
        </mxCell>
        <mxCell id="opWwulUOpppvouaUZtau-108" value="OrderedAtPrice" style="ellipse;whiteSpace=wrap;html=1;fillColor=#b1ddf0;strokeColor=#10739e;" vertex="1" parent="1">
          <mxGeometry x="334" y="830" width="116" height="50" as="geometry" />
        </mxCell>
        <mxCell id="opWwulUOpppvouaUZtau-109" value="&lt;u&gt;OrderItemID&lt;/u&gt;" style="ellipse;whiteSpace=wrap;html=1;fillColor=#b1ddf0;strokeColor=#10739e;" vertex="1" parent="1">
          <mxGeometry x="338" y="770" width="90" height="50" as="geometry" />
        </mxCell>
        <mxCell id="opWwulUOpppvouaUZtau-110" value="" style="endArrow=none;html=1;rounded=0;entryX=1;entryY=0.25;entryDx=0;entryDy=0;exitX=0;exitY=0.5;exitDx=0;exitDy=0;fillColor=#b1ddf0;strokeColor=#10739e;" edge="1" parent="1" source="opWwulUOpppvouaUZtau-109" target="NvxxbsTkmJ9zuggZ2Z-y-9">
          <mxGeometry width="50" height="50" relative="1" as="geometry">
            <mxPoint x="739" y="815" as="sourcePoint" />
            <mxPoint x="309" y="732.5" as="targetPoint" />
          </mxGeometry>
        </mxCell>
        <mxCell id="opWwulUOpppvouaUZtau-111" value="" style="endArrow=none;html=1;rounded=0;entryX=1;entryY=0.75;entryDx=0;entryDy=0;exitX=0;exitY=0.5;exitDx=0;exitDy=0;fillColor=#b1ddf0;strokeColor=#10739e;" edge="1" parent="1" source="opWwulUOpppvouaUZtau-108" target="NvxxbsTkmJ9zuggZ2Z-y-9">
          <mxGeometry width="50" height="50" relative="1" as="geometry">
            <mxPoint x="409" y="870" as="sourcePoint" />
            <mxPoint x="369" y="865" as="targetPoint" />
          </mxGeometry>
        </mxCell>
        <mxCell id="opWwulUOpppvouaUZtau-112" value="" style="endArrow=none;html=1;rounded=0;exitX=1;exitY=0.5;exitDx=0;exitDy=0;fillColor=#b1ddf0;strokeColor=#10739e;entryX=0;entryY=0.75;entryDx=0;entryDy=0;" edge="1" parent="1" source="opWwulUOpppvouaUZtau-107" target="NvxxbsTkmJ9zuggZ2Z-y-9">
          <mxGeometry width="50" height="50" relative="1" as="geometry">
            <mxPoint x="484" y="960" as="sourcePoint" />
            <mxPoint x="219" y="778" as="targetPoint" />
          </mxGeometry>
        </mxCell>
        <mxCell id="opWwulUOpppvouaUZtau-113" value="" style="endArrow=none;html=1;rounded=0;entryX=-0.006;entryY=0.374;entryDx=0;entryDy=0;exitX=1;exitY=0.5;exitDx=0;exitDy=0;fillColor=#b1ddf0;strokeColor=#10739e;entryPerimeter=0;" edge="1" parent="1" source="opWwulUOpppvouaUZtau-106" target="NvxxbsTkmJ9zuggZ2Z-y-9">
          <mxGeometry width="50" height="50" relative="1" as="geometry">
            <mxPoint x="158.99999999999136" y="747.4999999999998" as="sourcePoint" />
            <mxPoint x="369" y="935" as="targetPoint" />
          </mxGeometry>
        </mxCell>
        <mxCell id="opWwulUOpppvouaUZtau-115" value="" style="endArrow=none;html=1;rounded=0;entryX=0.5;entryY=1;entryDx=0;entryDy=0;exitX=0.5;exitY=0;exitDx=0;exitDy=0;fillColor=#b1ddf0;strokeColor=#10739e;" edge="1" parent="1" source="NvxxbsTkmJ9zuggZ2Z-y-9" target="NvxxbsTkmJ9zuggZ2Z-y-11">
          <mxGeometry width="50" height="50" relative="1" as="geometry">
            <mxPoint x="244" y="777.5" as="sourcePoint" />
            <mxPoint x="294" y="720" as="targetPoint" />
          </mxGeometry>
        </mxCell>
        <mxCell id="opWwulUOpppvouaUZtau-116" value="" style="endArrow=none;html=1;rounded=0;entryX=0.5;entryY=0;entryDx=0;entryDy=0;exitX=0.5;exitY=1;exitDx=0;exitDy=0;fillColor=#b1ddf0;strokeColor=#10739e;" edge="1" parent="1" source="opWwulUOpppvouaUZtau-70" target="NvxxbsTkmJ9zuggZ2Z-y-11">
          <mxGeometry width="50" height="50" relative="1" as="geometry">
            <mxPoint x="260" y="797.5" as="sourcePoint" />
            <mxPoint x="260" y="767.5" as="targetPoint" />
          </mxGeometry>
        </mxCell>
        <mxCell id="opWwulUOpppvouaUZtau-121" value="" style="endArrow=none;html=1;rounded=0;exitX=1;exitY=0.5;exitDx=0;exitDy=0;entryX=0;entryY=0.5;entryDx=0;entryDy=0;fillColor=#b1ddf0;strokeColor=#10739e;" edge="1" parent="1" source="UKkPd1WE1HDjljk0dFrL-4" target="UKkPd1WE1HDjljk0dFrL-2">
          <mxGeometry width="50" height="50" relative="1" as="geometry">
            <mxPoint x="620" y="530" as="sourcePoint" />
            <mxPoint x="545" y="555" as="targetPoint" />
          </mxGeometry>
        </mxCell>
        <mxCell id="opWwulUOpppvouaUZtau-122" value="" style="endArrow=none;html=1;rounded=0;exitX=0;exitY=0.5;exitDx=0;exitDy=0;entryX=1;entryY=0.5;entryDx=0;entryDy=0;fillColor=#b1ddf0;strokeColor=#10739e;" edge="1" parent="1" source="UKkPd1WE1HDjljk0dFrL-4" target="opWwulUOpppvouaUZtau-70">
          <mxGeometry width="50" height="50" relative="1" as="geometry">
            <mxPoint x="400" y="572.4999999999998" as="sourcePoint" />
            <mxPoint x="670" y="795.5" as="targetPoint" />
          </mxGeometry>
        </mxCell>
        <mxCell id="opWwulUOpppvouaUZtau-124" value="Order Date" style="ellipse;whiteSpace=wrap;html=1;fillColor=#b1ddf0;strokeColor=#10739e;" vertex="1" parent="1">
          <mxGeometry x="75" y="470" width="90" height="50" as="geometry" />
        </mxCell>
        <mxCell id="opWwulUOpppvouaUZtau-125" value="&lt;u&gt;OrderID&lt;/u&gt;" style="ellipse;whiteSpace=wrap;html=1;fillColor=#b1ddf0;strokeColor=#10739e;" vertex="1" parent="1">
          <mxGeometry x="75" y="580" width="90" height="50" as="geometry" />
        </mxCell>
        <mxCell id="opWwulUOpppvouaUZtau-126" value="Status" style="ellipse;whiteSpace=wrap;html=1;fillColor=#b1ddf0;strokeColor=#10739e;" vertex="1" parent="1">
          <mxGeometry x="75" y="410" width="90" height="50" as="geometry" />
        </mxCell>
        <mxCell id="opWwulUOpppvouaUZtau-127" value="TotalPrice" style="ellipse;whiteSpace=wrap;html=1;dashed=1;dashPattern=8 8;fillColor=#b1ddf0;strokeColor=#10739e;" vertex="1" parent="1">
          <mxGeometry x="75" y="352.5" width="90" height="50" as="geometry" />
        </mxCell>
        <mxCell id="opWwulUOpppvouaUZtau-128" value="&lt;u&gt;UserID&lt;/u&gt;" style="ellipse;whiteSpace=wrap;html=1;fillColor=#b1ddf0;strokeColor=#10739e;" vertex="1" parent="1">
          <mxGeometry x="75" y="640" width="90" height="50" as="geometry" />
        </mxCell>
        <mxCell id="opWwulUOpppvouaUZtau-129" value="" style="endArrow=none;html=1;rounded=0;entryX=1;entryY=0.5;entryDx=0;entryDy=0;exitX=0;exitY=0.75;exitDx=0;exitDy=0;fillColor=#b1ddf0;strokeColor=#10739e;" edge="1" parent="1" source="opWwulUOpppvouaUZtau-70" target="opWwulUOpppvouaUZtau-125">
          <mxGeometry width="50" height="50" relative="1" as="geometry">
            <mxPoint x="414" y="557.5" as="sourcePoint" />
            <mxPoint x="280" y="587.5" as="targetPoint" />
          </mxGeometry>
        </mxCell>
        <mxCell id="opWwulUOpppvouaUZtau-130" value="" style="endArrow=none;html=1;rounded=0;entryX=1;entryY=0.5;entryDx=0;entryDy=0;exitX=0;exitY=0.5;exitDx=0;exitDy=0;fillColor=#b1ddf0;strokeColor=#10739e;" edge="1" parent="1" source="opWwulUOpppvouaUZtau-70" target="opWwulUOpppvouaUZtau-124">
          <mxGeometry width="50" height="50" relative="1" as="geometry">
            <mxPoint x="394" y="570.5" as="sourcePoint" />
            <mxPoint x="370" y="567.5" as="targetPoint" />
          </mxGeometry>
        </mxCell>
        <mxCell id="opWwulUOpppvouaUZtau-131" value="" style="endArrow=none;html=1;rounded=0;entryX=1;entryY=0.5;entryDx=0;entryDy=0;exitX=0;exitY=0.25;exitDx=0;exitDy=0;fillColor=#b1ddf0;strokeColor=#10739e;" edge="1" parent="1" source="opWwulUOpppvouaUZtau-70" target="opWwulUOpppvouaUZtau-126">
          <mxGeometry width="50" height="50" relative="1" as="geometry">
            <mxPoint x="337" y="499.5" as="sourcePoint" />
            <mxPoint x="300" y="467.5" as="targetPoint" />
          </mxGeometry>
        </mxCell>
        <mxCell id="opWwulUOpppvouaUZtau-132" value="" style="endArrow=none;html=1;rounded=0;entryX=1;entryY=0.5;entryDx=0;entryDy=0;fillColor=#b1ddf0;strokeColor=#10739e;exitX=0;exitY=0;exitDx=0;exitDy=0;" edge="1" parent="1" source="opWwulUOpppvouaUZtau-70" target="opWwulUOpppvouaUZtau-127">
          <mxGeometry width="50" height="50" relative="1" as="geometry">
            <mxPoint x="210" y="480" as="sourcePoint" />
            <mxPoint x="368" y="452.4000000000001" as="targetPoint" />
          </mxGeometry>
        </mxCell>
        <mxCell id="opWwulUOpppvouaUZtau-133" value="" style="endArrow=none;html=1;rounded=0;exitX=0;exitY=1;exitDx=0;exitDy=0;fillColor=#b1ddf0;strokeColor=#10739e;entryX=1;entryY=0.5;entryDx=0;entryDy=0;" edge="1" parent="1" source="opWwulUOpppvouaUZtau-70" target="opWwulUOpppvouaUZtau-128">
          <mxGeometry width="50" height="50" relative="1" as="geometry">
            <mxPoint x="390" y="537.5" as="sourcePoint" />
            <mxPoint x="355" y="507" as="targetPoint" />
          </mxGeometry>
        </mxCell>
        <mxCell id="opWwulUOpppvouaUZtau-134" value="Wallet Balance" style="ellipse;whiteSpace=wrap;html=1;dashed=1;dashPattern=8 8;fillColor=#b1ddf0;strokeColor=#10739e;" vertex="1" parent="1">
          <mxGeometry x="415" y="640" width="90" height="50" as="geometry" />
        </mxCell>
        <mxCell id="opWwulUOpppvouaUZtau-135" value="&lt;u&gt;UserID&lt;/u&gt;" style="ellipse;whiteSpace=wrap;html=1;fillColor=#b1ddf0;strokeColor=#10739e;" vertex="1" parent="1">
          <mxGeometry x="465" y="710" width="80" height="50" as="geometry" />
        </mxCell>
        <mxCell id="opWwulUOpppvouaUZtau-136" value="IsOwnedBy" style="rhombus;whiteSpace=wrap;html=1;fillColor=#b1ddf0;strokeColor=#10739e;" vertex="1" parent="1">
          <mxGeometry x="415" y="362.5" width="120" height="55" as="geometry" />
        </mxCell>
        <mxCell id="opWwulUOpppvouaUZtau-137" value="" style="endArrow=none;html=1;rounded=0;exitX=0.5;exitY=0;exitDx=0;exitDy=0;entryX=0.5;entryY=1;entryDx=0;entryDy=0;fillColor=#b1ddf0;strokeColor=#10739e;" edge="1" parent="1" source="opWwulUOpppvouaUZtau-136" target="opWwulUOpppvouaUZtau-7">
          <mxGeometry width="50" height="50" relative="1" as="geometry">
            <mxPoint x="490" y="220" as="sourcePoint" />
            <mxPoint x="460" y="220" as="targetPoint" />
          </mxGeometry>
        </mxCell>
        <mxCell id="opWwulUOpppvouaUZtau-139" value="" style="endArrow=none;html=1;rounded=0;entryX=0.5;entryY=1;entryDx=0;entryDy=0;fillColor=#b1ddf0;strokeColor=#10739e;exitX=0.25;exitY=0;exitDx=0;exitDy=0;" edge="1" parent="1" source="UKkPd1WE1HDjljk0dFrL-2" target="opWwulUOpppvouaUZtau-136">
          <mxGeometry width="50" height="50" relative="1" as="geometry">
            <mxPoint x="575" y="525" as="sourcePoint" />
            <mxPoint x="560" y="500" as="targetPoint" />
          </mxGeometry>
        </mxCell>
        <mxCell id="opWwulUOpppvouaUZtau-140" value="IsOwnedBy" style="rhombus;whiteSpace=wrap;html=1;fillColor=#b1ddf0;strokeColor=#10739e;" vertex="1" parent="1">
          <mxGeometry x="620" y="362.5" width="120" height="55" as="geometry" />
        </mxCell>
        <mxCell id="opWwulUOpppvouaUZtau-141" value="" style="endArrow=none;html=1;rounded=0;entryX=0;entryY=1;entryDx=0;entryDy=0;exitX=0.5;exitY=0;exitDx=0;exitDy=0;fillColor=#b1ddf0;strokeColor=#10739e;" edge="1" parent="1" source="opWwulUOpppvouaUZtau-140" target="opWwulUOpppvouaUZtau-9">
          <mxGeometry width="50" height="50" relative="1" as="geometry">
            <mxPoint x="830" y="247" as="sourcePoint" />
            <mxPoint x="920" y="210" as="targetPoint" />
          </mxGeometry>
        </mxCell>
        <mxCell id="opWwulUOpppvouaUZtau-142" value="" style="endArrow=none;html=1;rounded=0;entryX=0.5;entryY=1;entryDx=0;entryDy=0;fillColor=#b1ddf0;strokeColor=#10739e;exitX=0.75;exitY=0;exitDx=0;exitDy=0;" edge="1" parent="1" source="UKkPd1WE1HDjljk0dFrL-2" target="opWwulUOpppvouaUZtau-140">
          <mxGeometry width="50" height="50" relative="1" as="geometry">
            <mxPoint x="635" y="525" as="sourcePoint" />
            <mxPoint x="901" y="390" as="targetPoint" />
          </mxGeometry>
        </mxCell>
        <mxCell id="opWwulUOpppvouaUZtau-145" value="Date of Birth" style="ellipse;whiteSpace=wrap;html=1;fillColor=#b1ddf0;strokeColor=#10739e;" vertex="1" parent="1">
          <mxGeometry x="720" y="640" width="80" height="50" as="geometry" />
        </mxCell>
        <mxCell id="NvxxbsTkmJ9zuggZ2Z-y-1" value="Username" style="ellipse;whiteSpace=wrap;html=1;fillColor=#b1ddf0;strokeColor=#10739e;" vertex="1" parent="1">
          <mxGeometry x="660" y="710" width="80" height="50" as="geometry" />
        </mxCell>
        <mxCell id="NvxxbsTkmJ9zuggZ2Z-y-2" value="&lt;u&gt;AccountID&lt;/u&gt;" style="ellipse;whiteSpace=wrap;html=1;fillColor=#b1ddf0;strokeColor=#10739e;" vertex="1" parent="1">
          <mxGeometry x="565" y="710" width="80" height="50" as="geometry" />
        </mxCell>
        <mxCell id="NvxxbsTkmJ9zuggZ2Z-y-4" value="" style="endArrow=none;html=1;rounded=0;exitX=1;exitY=0.5;exitDx=0;exitDy=0;fillColor=#b1ddf0;strokeColor=#10739e;entryX=0.25;entryY=1;entryDx=0;entryDy=0;" edge="1" parent="1" source="opWwulUOpppvouaUZtau-134" target="UKkPd1WE1HDjljk0dFrL-2">
          <mxGeometry width="50" height="50" relative="1" as="geometry">
            <mxPoint x="560" y="665" as="sourcePoint" />
            <mxPoint x="540" y="585" as="targetPoint" />
          </mxGeometry>
        </mxCell>
        <mxCell id="NvxxbsTkmJ9zuggZ2Z-y-5" value="" style="endArrow=none;html=1;rounded=0;exitX=1;exitY=0.5;exitDx=0;exitDy=0;entryX=0.386;entryY=1.013;entryDx=0;entryDy=0;fillColor=#b1ddf0;strokeColor=#10739e;entryPerimeter=0;" edge="1" parent="1" source="opWwulUOpppvouaUZtau-135" target="UKkPd1WE1HDjljk0dFrL-2">
          <mxGeometry width="50" height="50" relative="1" as="geometry">
            <mxPoint x="570" y="775" as="sourcePoint" />
            <mxPoint x="575" y="585" as="targetPoint" />
          </mxGeometry>
        </mxCell>
        <mxCell id="NvxxbsTkmJ9zuggZ2Z-y-6" value="" style="endArrow=none;html=1;rounded=0;exitX=0.5;exitY=0;exitDx=0;exitDy=0;entryX=0.5;entryY=1;entryDx=0;entryDy=0;fillColor=#b1ddf0;strokeColor=#10739e;" edge="1" parent="1" source="NvxxbsTkmJ9zuggZ2Z-y-2" target="UKkPd1WE1HDjljk0dFrL-2">
          <mxGeometry width="50" height="50" relative="1" as="geometry">
            <mxPoint x="660" y="835" as="sourcePoint" />
            <mxPoint x="605" y="585" as="targetPoint" />
          </mxGeometry>
        </mxCell>
        <mxCell id="NvxxbsTkmJ9zuggZ2Z-y-7" value="" style="endArrow=none;html=1;rounded=0;exitX=0;exitY=0;exitDx=0;exitDy=0;entryX=0.634;entryY=1.004;entryDx=0;entryDy=0;fillColor=#b1ddf0;strokeColor=#10739e;entryPerimeter=0;" edge="1" parent="1" source="NvxxbsTkmJ9zuggZ2Z-y-1" target="UKkPd1WE1HDjljk0dFrL-2">
          <mxGeometry width="50" height="50" relative="1" as="geometry">
            <mxPoint x="760" y="850" as="sourcePoint" />
            <mxPoint x="635" y="585" as="targetPoint" />
          </mxGeometry>
        </mxCell>
        <mxCell id="NvxxbsTkmJ9zuggZ2Z-y-8" value="" style="endArrow=none;html=1;rounded=0;exitX=0;exitY=0.5;exitDx=0;exitDy=0;entryX=0.75;entryY=1;entryDx=0;entryDy=0;fillColor=#b1ddf0;strokeColor=#10739e;" edge="1" parent="1" source="opWwulUOpppvouaUZtau-145" target="UKkPd1WE1HDjljk0dFrL-2">
          <mxGeometry width="50" height="50" relative="1" as="geometry">
            <mxPoint x="837" y="787" as="sourcePoint" />
            <mxPoint x="665" y="585" as="targetPoint" />
          </mxGeometry>
        </mxCell>
        <mxCell id="NvxxbsTkmJ9zuggZ2Z-y-9" value="OrderItem" style="shape=ext;double=1;rounded=0;whiteSpace=wrap;html=1;fillColor=#b1ddf0;strokeColor=#10739e;" vertex="1" parent="1">
          <mxGeometry x="187" y="790" width="120" height="60" as="geometry" />
        </mxCell>
        <mxCell id="NvxxbsTkmJ9zuggZ2Z-y-11" value="IncludesItem" style="shape=rhombus;double=1;perimeter=rhombusPerimeter;whiteSpace=wrap;html=1;align=center;fillColor=#b1ddf0;strokeColor=#10739e;" vertex="1" parent="1">
          <mxGeometry x="189" y="660" width="120" height="60" as="geometry" />
        </mxCell>
        <mxCell id="NvxxbsTkmJ9zuggZ2Z-y-12" value="HasGameTags" style="shape=rhombus;double=1;perimeter=rhombusPerimeter;whiteSpace=wrap;html=1;align=center;fillColor=#b1ddf0;strokeColor=#10739e;" vertex="1" parent="1">
          <mxGeometry x="773" y="362.5" width="127" height="60" as="geometry" />
        </mxCell>
        <mxCell id="NvxxbsTkmJ9zuggZ2Z-y-13" value="Has" style="shape=rhombus;double=1;perimeter=rhombusPerimeter;whiteSpace=wrap;html=1;align=center;fillColor=#b1ddf0;strokeColor=#10739e;" vertex="1" parent="1">
          <mxGeometry x="1140" y="350" width="120" height="60" as="geometry" />
        </mxCell>
        <mxCell id="NvxxbsTkmJ9zuggZ2Z-y-14" value="Payment Method" style="ellipse;whiteSpace=wrap;html=1;fillColor=#b1ddf0;strokeColor=#10739e;" vertex="1" parent="1">
          <mxGeometry x="180" y="345" width="90" height="50" as="geometry" />
        </mxCell>
        <mxCell id="NvxxbsTkmJ9zuggZ2Z-y-15" value="Currency" style="ellipse;whiteSpace=wrap;html=1;fillColor=#b1ddf0;strokeColor=#10739e;" vertex="1" parent="1">
          <mxGeometry x="280" y="345" width="90" height="50" as="geometry" />
        </mxCell>
        <mxCell id="NvxxbsTkmJ9zuggZ2Z-y-16" value="" style="endArrow=none;html=1;rounded=0;entryX=0.5;entryY=1;entryDx=0;entryDy=0;exitX=0.25;exitY=0;exitDx=0;exitDy=0;fillColor=#b1ddf0;strokeColor=#10739e;" edge="1" parent="1" source="opWwulUOpppvouaUZtau-70" target="NvxxbsTkmJ9zuggZ2Z-y-14">
          <mxGeometry width="50" height="50" relative="1" as="geometry">
            <mxPoint x="320" y="570" as="sourcePoint" />
            <mxPoint x="370" y="520" as="targetPoint" />
          </mxGeometry>
        </mxCell>
        <mxCell id="NvxxbsTkmJ9zuggZ2Z-y-17" value="" style="endArrow=none;html=1;rounded=0;entryX=0.5;entryY=1;entryDx=0;entryDy=0;exitX=0.75;exitY=0;exitDx=0;exitDy=0;fillColor=#b1ddf0;strokeColor=#10739e;" edge="1" parent="1" source="opWwulUOpppvouaUZtau-70" target="NvxxbsTkmJ9zuggZ2Z-y-15">
          <mxGeometry width="50" height="50" relative="1" as="geometry">
            <mxPoint x="349" y="490" as="sourcePoint" />
            <mxPoint x="330" y="420" as="targetPoint" />
          </mxGeometry>
        </mxCell>
        <mxCell id="NvxxbsTkmJ9zuggZ2Z-y-21" value="Country" style="ellipse;whiteSpace=wrap;html=1;fillColor=#b1ddf0;strokeColor=#10739e;" vertex="1" parent="1">
          <mxGeometry x="193" y="250" width="80" height="50" as="geometry" />
        </mxCell>
        <mxCell id="NvxxbsTkmJ9zuggZ2Z-y-22" value="" style="endArrow=none;html=1;rounded=0;exitX=0.5;exitY=0;exitDx=0;exitDy=0;entryX=0.25;entryY=1;entryDx=0;entryDy=0;fillColor=#b1ddf0;strokeColor=#10739e;" edge="1" parent="1" source="NvxxbsTkmJ9zuggZ2Z-y-21" target="opWwulUOpppvouaUZtau-7">
          <mxGeometry width="50" height="50" relative="1" as="geometry">
            <mxPoint x="815" y="648" as="sourcePoint" />
            <mxPoint x="760" y="640" as="targetPoint" />
          </mxGeometry>
        </mxCell>
        <mxCell id="UKkPd1WE1HDjljk0dFrL-1" value="Developer" style="shape=ext;double=1;rounded=0;whiteSpace=wrap;html=1;fillColor=#b1ddf0;strokeColor=#10739e;" vertex="1" parent="1">
          <mxGeometry x="505" y="110" width="120" height="60" as="geometry" />
        </mxCell>
        <mxCell id="UKkPd1WE1HDjljk0dFrL-2" value="User" style="shape=ext;double=1;rounded=0;whiteSpace=wrap;html=1;fillColor=#b1ddf0;strokeColor=#10739e;" vertex="1" parent="1">
          <mxGeometry x="545" y="520" width="120" height="60" as="geometry" />
        </mxCell>
        <mxCell id="UKkPd1WE1HDjljk0dFrL-3" value="Writes" style="shape=rhombus;double=1;perimeter=rhombusPerimeter;whiteSpace=wrap;html=1;align=center;fillColor=#b1ddf0;strokeColor=#10739e;" vertex="1" parent="1">
          <mxGeometry x="827" y="570" width="127" height="60" as="geometry" />
        </mxCell>
        <mxCell id="UKkPd1WE1HDjljk0dFrL-4" value="Orders" style="shape=rhombus;double=1;perimeter=rhombusPerimeter;whiteSpace=wrap;html=1;align=center;fillColor=#b1ddf0;strokeColor=#10739e;" vertex="1" parent="1">
          <mxGeometry x="380" y="520" width="127" height="60" as="geometry" />
        </mxCell>
        <mxCell id="UKkPd1WE1HDjljk0dFrL-8" value="IsOwnedBy" style="shape=rhombus;double=1;perimeter=rhombusPerimeter;whiteSpace=wrap;html=1;align=center;fillColor=#b1ddf0;strokeColor=#10739e;" vertex="1" parent="1">
          <mxGeometry x="350" y="112.5" width="127" height="60" as="geometry" />
        </mxCell>
        <mxCell id="UKkPd1WE1HDjljk0dFrL-9" value="IsDevelopedBy" style="shape=rhombus;double=1;perimeter=rhombusPerimeter;whiteSpace=wrap;html=1;align=center;fillColor=#b1ddf0;strokeColor=#10739e;" vertex="1" parent="1">
          <mxGeometry x="643.73" y="115" width="127" height="60" as="geometry" />
        </mxCell>
        <mxCell id="UKkPd1WE1HDjljk0dFrL-10" value="IsPublishedBy" style="shape=rhombus;double=1;perimeter=rhombusPerimeter;whiteSpace=wrap;html=1;align=center;fillColor=#b1ddf0;strokeColor=#10739e;" vertex="1" parent="1">
          <mxGeometry x="995" y="110" width="127" height="60" as="geometry" />
        </mxCell>
        <mxCell id="08D1Zu1vC7pbEzkFYPRE-1" value="ItemName" style="ellipse;whiteSpace=wrap;html=1;fillColor=#b1ddf0;strokeColor=#10739e;" vertex="1" parent="1">
          <mxGeometry x="191" y="890" width="116" height="50" as="geometry" />
        </mxCell>
        <mxCell id="08D1Zu1vC7pbEzkFYPRE-2" value="" style="endArrow=none;html=1;rounded=0;entryX=0.5;entryY=1;entryDx=0;entryDy=0;exitX=0.5;exitY=0;exitDx=0;exitDy=0;fillColor=#b1ddf0;strokeColor=#10739e;" edge="1" parent="1" source="08D1Zu1vC7pbEzkFYPRE-1" target="NvxxbsTkmJ9zuggZ2Z-y-9">
          <mxGeometry width="50" height="50" relative="1" as="geometry">
            <mxPoint x="346" y="880" as="sourcePoint" />
            <mxPoint x="330" y="860" as="targetPoint" />
          </mxGeometry>
        </mxCell>
        <mxCell id="aoRlE9sG6il4cOp2I-PA-1" value="Completed At" style="ellipse;whiteSpace=wrap;html=1;fillColor=#b1ddf0;strokeColor=#10739e;" vertex="1" parent="1">
          <mxGeometry x="75" y="525" width="90" height="50" as="geometry" />
        </mxCell>
        <mxCell id="aoRlE9sG6il4cOp2I-PA-2" value="" style="endArrow=none;html=1;rounded=0;entryX=1;entryY=0.5;entryDx=0;entryDy=0;exitX=0.006;exitY=0.633;exitDx=0;exitDy=0;fillColor=#b1ddf0;strokeColor=#10739e;exitPerimeter=0;" edge="1" parent="1" source="opWwulUOpppvouaUZtau-70" target="aoRlE9sG6il4cOp2I-PA-1">
          <mxGeometry width="50" height="50" relative="1" as="geometry">
            <mxPoint x="214" y="540" as="sourcePoint" />
            <mxPoint x="165" y="540" as="targetPoint" />
          </mxGeometry>
        </mxCell>
      </root>
    </mxGraphModel>
  </diagram>
</mxfile>
